# xmcd CD database file
#
# Track frame offsets:
#	150
#	14199
#	29549
#	48598
#	62560
#	76484
#	90584
#	106808
#	121919
#	136931
#	153331
#	170205
#
# Disc length: 2477 seconds
#
# Revision: 0
# Processed by: cddbd v1.5.2PL0 Copyright (c) Steve Scherf et al.
# Submitted via: CdAid (MTCDDB.DLL V2003.12.21)
#
DISCID=9e09ab0c
DTITLE=Garland Green - The Spring Sides
DYEAR=2012
DGENRE=R&B
TTITLE0=Please Come Home
TTITLE1=Sweet Loving Woman
TTITLE2=Nothing Can Take You From Me
TTITLE3=(You Gotta) Come Through Me
TTITLE4=Sending My Best Wishes
TTITLE5=Let The Good Times Roll
TTITLE6=Just Loving You
TTITLE7=You And I Go Good Together
TTITLE8=Bumpin' And Stompin'
TTITLE9=Since You've Been Gone
TTITLE10=He Didn't Know (He Kept On Talking)
TTITLE11=Just What The Doctor Ordered
EXTD=ID3G:  14 YEAR: 2012
EXTT0=
EXTT1=
EXTT2=
EXTT3=
EXTT4=
EXTT5=
EXTT6=
EXTT7=
EXTT8=
EXTT9=
EXTT10=
EXTT11=
PLAYORDER=
